<?xml version="1.0" encoding="UTF-8"?>
<svg version="1.1" xmlns="http://www.w3.org/2000/svg" width="24" height="24">
<path d="M0 0 C1.32 0 2.64 0 4 0 C4.33 0.99 4.66 1.98 5 3 C6.32 3 7.64 3 9 3 C12.03752971 10.15989147 12.26721244 16.25083914 12 24 C5.4 24 -1.2 24 -8 24 C-8.41121685 11.52642235 -8.41121685 11.52642235 -5 7 C-2.8125 6.1875 -2.8125 6.1875 -1 6 C-0.67 4.02 -0.34 2.04 0 0 Z " fill="#1F2212" transform="translate(10,0)"/>
<path d="M0 0 C0.66 0 1.32 0 2 0 C2.33 1.32 2.66 2.64 3 4 C1.68 4 0.36 4 -1 4 C-1 4.66 -1 5.32 -1 6 C0.32 6.33 1.64 6.66 3 7 C1.68 7 0.36 7 -1 7 C-1 7.99 -1 8.98 -1 10 C0.32 10 1.64 10 3 10 C3 12.64 3 15.28 3 18 C1.35 18 -0.3 18 -2 18 C-2 17.34 -2 16.68 -2 16 C-3.32 16 -4.64 16 -6 16 C-6 15.34 -6 14.68 -6 14 C-4.68 14 -3.36 14 -2 14 C-2 13.34 -2 12.68 -2 12 C-2.66 11.67 -3.32 11.34 -4 11 C-3.52269162 9.5410574 -3.04308958 8.08286504 -2.5625 6.625 C-2.29566406 5.81289062 -2.02882813 5.00078125 -1.75390625 4.1640625 C-1 2 -1 2 0 0 Z " fill="#77847F" transform="translate(11,5)"/>
<path d="M0 0 C0.66 0.99 1.32 1.98 2 3 C3.32 3 4.64 3 6 3 C9.0017506 10.07555499 9.34855655 16.37048445 9 24 C8.34 24 7.68 24 7 24 C6.67 19.71 6.34 15.42 6 11 C4.68 10.67 3.36 10.34 2 10 C-0.1519437 6.77208445 -0.20086443 5.71599191 0 2 C-0.66 1.67 -1.32 1.34 -2 1 C-1.34 0.67 -0.68 0.34 0 0 Z " fill="#150C0B" transform="translate(13,0)"/>
<path d="M0 0 C0.33 0.66 0.66 1.32 1 2 C0.01 2 -0.98 2 -2 2 C-2 2.66 -2 3.32 -2 4 C-1.34 4.33 -0.68 4.66 0 5 C-0.99 5 -1.98 5 -3 5 C-3 5.66 -3 6.32 -3 7 C-2.34 7 -1.68 7 -1 7 C-1.33 7.99 -1.66 8.98 -2 10 C-2.66 10 -3.32 10 -4 10 C-4.33 10.99 -4.66 11.98 -5 13 C-5 10.36 -5 7.72 -5 5 C-6.32 5 -7.64 5 -9 5 C-9 3.02 -9 1.04 -9 -1 C-5.39416086 -2.33549598 -3.37916196 -1.73524533 0 0 Z " fill="#75513C" transform="translate(19,10)"/>
<path d="M0 0 C0.99 0.33 1.98 0.66 3 1 C3 2.32 3 3.64 3 5 C2.34 5 1.68 5 1 5 C0.89042969 5.62648438 0.78085938 6.25296875 0.66796875 6.8984375 C0.50941406 7.71570313 0.35085937 8.53296875 0.1875 9.375 C0.03667969 10.18710938 -0.11414063 10.99921875 -0.26953125 11.8359375 C-1.29209594 14.86535375 -3.24012772 15.62006386 -6 17 C-7.20608899 11.69320843 -7.20608899 11.69320843 -6.3125 8.6875 C-4.68894113 6.60006716 -3.57547398 6.34339653 -1 6 C-0.67 4.02 -0.34 2.04 0 0 Z " fill="#3A1718" transform="translate(10,0)"/>
<path d="M0 0 C0.99 0 1.98 0 3 0 C3 3.96 3 7.92 3 12 C-0.63 12 -4.26 12 -8 12 C-8 11.67 -8 11.34 -8 11 C-6.02 11 -4.04 11 -2 11 C-2 10.01 -2 9.02 -2 8 C-0.5 6.3125 -0.5 6.3125 1 5 C0.34 5 -0.32 5 -1 5 C-1.33 5.66 -1.66 6.32 -2 7 C-2 5.35 -2 3.7 -2 2 C-1.34 2 -0.68 2 0 2 C0 1.34 0 0.68 0 0 Z " fill="#352C2B" transform="translate(17,12)"/>
<path d="M0 0 C0 2.64 0 5.28 0 8 C-1.65 8 -3.3 8 -5 8 C-4.67 7.34 -4.34 6.68 -4 6 C-3.01 6 -2.02 6 -1 6 C-1 5.34 -1 4.68 -1 4 C-1.99 4 -2.98 4 -4 4 C-4 3.01 -4 2.02 -4 1 C-1 0 -1 0 0 0 Z " fill="#BCD5CC" transform="translate(14,15)"/>
<path d="M0 0 C3 3.75 3 3.75 3 6 C0 8 0 8 -2 9 C-2.33 7.02 -2.66 5.04 -3 3 C-2.01 3 -1.02 3 0 3 C0 2.01 0 1.02 0 0 Z " fill="#3D4A35" transform="translate(6,8)"/>
<path d="M0 0 C0.66 0 1.32 0 2 0 C2.33 1.32 2.66 2.64 3 4 C1.68 4 0.36 4 -1 4 C-1 4.66 -1 5.32 -1 6 C0.98 6.495 0.98 6.495 3 7 C1.35 7.33 -0.3 7.66 -2 8 C-2.20086443 4.28400809 -2.1519437 3.22791555 0 0 Z " fill="#ADC5BC" transform="translate(11,5)"/>
<path d="M0 0 C1.4606285 2.64738916 2 3.89448334 2 7 C0.68 6.67 -0.64 6.34 -2 6 C-2 4.35 -2 2.7 -2 1 C-1.34 0.67 -0.68 0.34 0 0 Z " fill="#1C1617" transform="translate(18,3)"/>
</svg>
